<mxfile host="app.diagrams.net" modified="2023-08-28T22:57:19.784Z" agent="Mozilla/5.0 (Windows NT 10.0; Win64; x64) AppleWebKit/537.36 (KHTML, like Gecko) Chrome/116.0.0.0 Safari/537.36" etag="Odu2d0tnItT5emLHlZqW" version="21.6.9" type="github">
  <diagram name="Page-1" id="ad52d381-51e7-2e0d-a935-2d0ddd2fd229">
    <mxGraphModel dx="1502" dy="608" grid="1" gridSize="10" guides="1" tooltips="1" connect="1" arrows="1" fold="1" page="1" pageScale="1" pageWidth="1100" pageHeight="850" background="#ffffff" math="0" shadow="0">
      <root>
        <mxCell id="0" />
        <mxCell id="1" parent="0" />
        <mxCell id="vTPjAO6uO9O3xuP_UaEZ-26" style="edgeStyle=orthogonalEdgeStyle;orthogonalLoop=1;jettySize=auto;html=1;curved=1;entryX=0.574;entryY=1.035;entryDx=0;entryDy=0;entryPerimeter=0;" edge="1" parent="1" source="vTPjAO6uO9O3xuP_UaEZ-1" target="vTPjAO6uO9O3xuP_UaEZ-2">
          <mxGeometry relative="1" as="geometry">
            <mxPoint x="240" y="290" as="targetPoint" />
          </mxGeometry>
        </mxCell>
        <mxCell id="vTPjAO6uO9O3xuP_UaEZ-60" value="Envía recomendaciones" style="edgeLabel;html=1;align=center;verticalAlign=middle;resizable=0;points=[];rotation=25;" vertex="1" connectable="0" parent="vTPjAO6uO9O3xuP_UaEZ-26">
          <mxGeometry x="-0.1942" y="-26" relative="1" as="geometry">
            <mxPoint y="-4" as="offset" />
          </mxGeometry>
        </mxCell>
        <mxCell id="vTPjAO6uO9O3xuP_UaEZ-1" value="&lt;font style=&quot;font-size: 23px;&quot;&gt;&lt;b&gt;&lt;u&gt;&lt;br&gt;DinoCare:&lt;br style=&quot;font-size: 23px;&quot;&gt;&lt;/u&gt;&lt;/b&gt;&lt;/font&gt;&lt;font style=&quot;font-size: 23px;&quot;&gt;App de Mantenimiento Preventivo&lt;/font&gt;" style="ellipse;whiteSpace=wrap;html=1;fillColor=#b1ddf0;strokeColor=#10739e;fontSize=23;" vertex="1" parent="1">
          <mxGeometry x="453" y="333" width="195" height="185" as="geometry" />
        </mxCell>
        <mxCell id="vTPjAO6uO9O3xuP_UaEZ-25" style="edgeStyle=orthogonalEdgeStyle;orthogonalLoop=1;jettySize=auto;html=1;entryX=0;entryY=0;entryDx=0;entryDy=0;curved=1;" edge="1" parent="1" source="vTPjAO6uO9O3xuP_UaEZ-2" target="vTPjAO6uO9O3xuP_UaEZ-1">
          <mxGeometry relative="1" as="geometry" />
        </mxCell>
        <mxCell id="vTPjAO6uO9O3xuP_UaEZ-49" value="Programa Mantenimiento" style="edgeLabel;html=1;align=center;verticalAlign=middle;resizable=0;points=[];rotation=30;" vertex="1" connectable="0" parent="vTPjAO6uO9O3xuP_UaEZ-25">
          <mxGeometry x="-0.1304" y="-34" relative="1" as="geometry">
            <mxPoint x="-13" y="-7" as="offset" />
          </mxGeometry>
        </mxCell>
        <mxCell id="vTPjAO6uO9O3xuP_UaEZ-2" value="USUARIO" style="rounded=0;whiteSpace=wrap;html=1;fillColor=#f8cecc;strokeColor=#b85450;fontSize=20;" vertex="1" parent="1">
          <mxGeometry x="120" y="200" width="200" height="80" as="geometry" />
        </mxCell>
        <mxCell id="vTPjAO6uO9O3xuP_UaEZ-27" style="edgeStyle=orthogonalEdgeStyle;orthogonalLoop=1;jettySize=auto;html=1;curved=1;exitX=0.5;exitY=1;exitDx=0;exitDy=0;" edge="1" parent="1" source="vTPjAO6uO9O3xuP_UaEZ-3">
          <mxGeometry relative="1" as="geometry">
            <mxPoint x="550" y="330" as="targetPoint" />
            <Array as="points">
              <mxPoint x="551" y="140" />
              <mxPoint x="551" y="330" />
            </Array>
          </mxGeometry>
        </mxCell>
        <mxCell id="vTPjAO6uO9O3xuP_UaEZ-47" value="&lt;font style=&quot;font-size: 14px;&quot;&gt;Posicionamiento&lt;/font&gt;" style="edgeLabel;html=1;align=center;verticalAlign=middle;resizable=0;points=[];" vertex="1" connectable="0" parent="vTPjAO6uO9O3xuP_UaEZ-27">
          <mxGeometry x="0.2845" y="27" relative="1" as="geometry">
            <mxPoint as="offset" />
          </mxGeometry>
        </mxCell>
        <mxCell id="vTPjAO6uO9O3xuP_UaEZ-3" value="GPS" style="rounded=0;whiteSpace=wrap;html=1;fillColor=#f8cecc;strokeColor=#b85450;fontSize=20;" vertex="1" parent="1">
          <mxGeometry x="590" y="60" width="200" height="80" as="geometry" />
        </mxCell>
        <mxCell id="vTPjAO6uO9O3xuP_UaEZ-36" style="edgeStyle=orthogonalEdgeStyle;orthogonalLoop=1;jettySize=auto;html=1;curved=1;exitX=0.406;exitY=0.001;exitDx=0;exitDy=0;entryX=0.369;entryY=0.977;entryDx=0;entryDy=0;entryPerimeter=0;exitPerimeter=0;" edge="1" parent="1" target="vTPjAO6uO9O3xuP_UaEZ-1">
          <mxGeometry relative="1" as="geometry">
            <mxPoint x="503.20000000000005" y="700.0799999999999" as="sourcePoint" />
            <mxPoint x="518.2649999999999" y="515.595" as="targetPoint" />
            <Array as="points">
              <mxPoint x="472" y="700" />
              <mxPoint x="472" y="514" />
            </Array>
          </mxGeometry>
        </mxCell>
        <mxCell id="vTPjAO6uO9O3xuP_UaEZ-58" value="Concesionarios" style="edgeLabel;html=1;align=center;verticalAlign=middle;resizable=0;points=[];rotation=90;" vertex="1" connectable="0" parent="vTPjAO6uO9O3xuP_UaEZ-36">
          <mxGeometry x="-0.1013" y="3" relative="1" as="geometry">
            <mxPoint x="14" as="offset" />
          </mxGeometry>
        </mxCell>
        <mxCell id="vTPjAO6uO9O3xuP_UaEZ-5" value="ADMINISTRADOR" style="rounded=0;whiteSpace=wrap;html=1;fillColor=#f8cecc;strokeColor=#b85450;fontSize=20;" vertex="1" parent="1">
          <mxGeometry x="440" y="700" width="200" height="80" as="geometry" />
        </mxCell>
        <mxCell id="vTPjAO6uO9O3xuP_UaEZ-20" value="" style="shape=image;verticalLabelPosition=bottom;labelBackgroundColor=default;verticalAlign=top;aspect=fixed;imageAspect=0;image=https://img.freepik.com/vector-premium/genial-dinosaurio-motocicleta_145832-290.jpg;imageBorder=default;sketch=1;curveFitting=1;jiggle=2;perimeter=none;opacity=80;imageBackground=#473333;fillStyle=zigzag;" vertex="1" parent="1">
          <mxGeometry x="530.5" y="340" width="40" height="40" as="geometry" />
        </mxCell>
        <mxCell id="vTPjAO6uO9O3xuP_UaEZ-35" style="edgeStyle=orthogonalEdgeStyle;orthogonalLoop=1;jettySize=auto;html=1;curved=1;entryX=0.6;entryY=0;entryDx=0;entryDy=0;entryPerimeter=0;" edge="1" parent="1" target="vTPjAO6uO9O3xuP_UaEZ-5">
          <mxGeometry relative="1" as="geometry">
            <mxPoint x="570" y="518" as="sourcePoint" />
            <mxPoint x="570" y="700" as="targetPoint" />
            <Array as="points">
              <mxPoint x="600" y="518" />
              <mxPoint x="600" y="700" />
            </Array>
          </mxGeometry>
        </mxCell>
        <mxCell id="vTPjAO6uO9O3xuP_UaEZ-61" value="Informe de usuarios" style="edgeLabel;html=1;align=center;verticalAlign=middle;resizable=0;points=[];rotation=90;" vertex="1" connectable="0" parent="vTPjAO6uO9O3xuP_UaEZ-35">
          <mxGeometry x="-0.0651" y="2" relative="1" as="geometry">
            <mxPoint as="offset" />
          </mxGeometry>
        </mxCell>
        <mxCell id="vTPjAO6uO9O3xuP_UaEZ-37" style="edgeStyle=orthogonalEdgeStyle;orthogonalLoop=1;jettySize=auto;html=1;entryX=0.258;entryY=0.061;entryDx=0;entryDy=0;curved=1;exitX=1;exitY=0.25;exitDx=0;exitDy=0;entryPerimeter=0;" edge="1" parent="1" source="vTPjAO6uO9O3xuP_UaEZ-2" target="vTPjAO6uO9O3xuP_UaEZ-1">
          <mxGeometry relative="1" as="geometry">
            <mxPoint x="330" y="250" as="sourcePoint" />
            <mxPoint x="492" y="370" as="targetPoint" />
          </mxGeometry>
        </mxCell>
        <mxCell id="vTPjAO6uO9O3xuP_UaEZ-48" value="Registra vehículo" style="edgeLabel;html=1;align=center;verticalAlign=middle;resizable=0;points=[];rotation=30;" vertex="1" connectable="0" parent="vTPjAO6uO9O3xuP_UaEZ-37">
          <mxGeometry x="-0.2423" y="-14" relative="1" as="geometry">
            <mxPoint x="9" y="10" as="offset" />
          </mxGeometry>
        </mxCell>
        <mxCell id="vTPjAO6uO9O3xuP_UaEZ-38" style="edgeStyle=orthogonalEdgeStyle;orthogonalLoop=1;jettySize=auto;html=1;entryX=0.07;entryY=0.244;entryDx=0;entryDy=0;curved=1;exitX=1;exitY=0.75;exitDx=0;exitDy=0;entryPerimeter=0;" edge="1" parent="1" source="vTPjAO6uO9O3xuP_UaEZ-2" target="vTPjAO6uO9O3xuP_UaEZ-1">
          <mxGeometry relative="1" as="geometry">
            <mxPoint x="330" y="261" as="sourcePoint" />
            <mxPoint x="472" y="380" as="targetPoint" />
          </mxGeometry>
        </mxCell>
        <mxCell id="vTPjAO6uO9O3xuP_UaEZ-39" style="edgeStyle=orthogonalEdgeStyle;orthogonalLoop=1;jettySize=auto;html=1;curved=1;entryX=0.397;entryY=1.051;entryDx=0;entryDy=0;entryPerimeter=0;exitX=-0.017;exitY=0.616;exitDx=0;exitDy=0;exitPerimeter=0;" edge="1" parent="1" source="vTPjAO6uO9O3xuP_UaEZ-1" target="vTPjAO6uO9O3xuP_UaEZ-2">
          <mxGeometry relative="1" as="geometry">
            <mxPoint x="250" y="300" as="targetPoint" />
            <mxPoint x="463" y="435" as="sourcePoint" />
          </mxGeometry>
        </mxCell>
        <mxCell id="vTPjAO6uO9O3xuP_UaEZ-40" style="edgeStyle=orthogonalEdgeStyle;orthogonalLoop=1;jettySize=auto;html=1;curved=1;exitX=0.012;exitY=0.417;exitDx=0;exitDy=0;exitPerimeter=0;entryX=0.75;entryY=1;entryDx=0;entryDy=0;" edge="1" parent="1" source="vTPjAO6uO9O3xuP_UaEZ-1" target="vTPjAO6uO9O3xuP_UaEZ-2">
          <mxGeometry relative="1" as="geometry">
            <mxPoint x="260" y="280" as="targetPoint" />
            <mxPoint x="473" y="415" as="sourcePoint" />
          </mxGeometry>
        </mxCell>
        <mxCell id="vTPjAO6uO9O3xuP_UaEZ-50" value="Envía Alerta" style="edgeLabel;html=1;align=center;verticalAlign=middle;resizable=0;points=[];rotation=25;" vertex="1" connectable="0" parent="vTPjAO6uO9O3xuP_UaEZ-40">
          <mxGeometry x="-0.2912" y="-22" relative="1" as="geometry">
            <mxPoint x="-17" y="-5" as="offset" />
          </mxGeometry>
        </mxCell>
        <mxCell id="vTPjAO6uO9O3xuP_UaEZ-41" style="edgeStyle=orthogonalEdgeStyle;orthogonalLoop=1;jettySize=auto;html=1;curved=1;exitX=0.406;exitY=0.001;exitDx=0;exitDy=0;entryX=0.427;entryY=0.987;entryDx=0;entryDy=0;entryPerimeter=0;exitPerimeter=0;" edge="1" parent="1">
          <mxGeometry relative="1" as="geometry">
            <mxPoint x="534.94" y="702" as="sourcePoint" />
            <mxPoint x="549.94" y="518" as="targetPoint" />
            <Array as="points">
              <mxPoint x="503.94" y="702" />
              <mxPoint x="503.94" y="518" />
            </Array>
          </mxGeometry>
        </mxCell>
        <mxCell id="vTPjAO6uO9O3xuP_UaEZ-57" value="Referencias y Marcas" style="edgeLabel;html=1;align=center;verticalAlign=middle;resizable=0;points=[];rotation=90;" vertex="1" connectable="0" parent="vTPjAO6uO9O3xuP_UaEZ-41">
          <mxGeometry x="-0.0458" y="-3" relative="1" as="geometry">
            <mxPoint x="10" y="1" as="offset" />
          </mxGeometry>
        </mxCell>
      </root>
    </mxGraphModel>
  </diagram>
</mxfile>
